<?xml version="1.0" encoding="UTF-8"?>
<svg width="192" height="192" xmlns="http://www.w3.org/2000/svg">
<circle r="4" fill="rgb(160, 160, 80)" cx="113.04732912718057" cy="34.7634430324677"></circle>
<polygon fill="rgb(160, 160, 80)" opacity="0.007874015748031496" points="66.00482737450689,7.481755571774933 154.92050082960213,48.30394192513112 154.94676516257448,48.246686421032955 66.00482737450689,7.481755571774933"></polygon>
<polygon fill="rgb(160, 160, 80)" opacity="0.015748031496062992" points="154.92050082960213,48.30394192513112 128.41045607538294,115.26938604599253 128.52763475801763,115.31565901953063 154.94676516257448,48.246686421032955"></polygon>
<polygon fill="rgb(160, 160, 80)" opacity="0.023622047244094488" points="128.41045607538294,115.26938604599253 97.9635280556149,85.62897679781886 97.83208555137098,85.76475212511446 128.52763475801763,115.31565901953063"></polygon>
<polygon fill="rgb(160, 160, 80)" opacity="0.031496062992125984" points="97.9635280556149,85.62897679781886 151.07284319690646,86.56881203332162 151.07637751789312,86.31686831827514 97.83208555137098,85.76475212511446"></polygon>
<polygon fill="rgb(160, 160, 80)" opacity="0.03937007874015748" points="151.07284319690646,86.56881203332162 139.13507943660233,170.581500103328 139.4469975359387,170.62517272297455 151.07637751789312,86.31686831827514"></polygon>
<polygon fill="rgb(160, 160, 80)" opacity="0.047244094488188976" points="139.13507943660233,170.581500103328 36.501118445389004,167.75706730532397 36.49135122464957,168.1348938357524 139.4469975359387,170.62517272297455"></polygon>
<polygon fill="rgb(160, 160, 80)" opacity="0.05511811023622047" points="36.501118445389004,167.75706730532397 25.14397838639092,71.06766419992887 24.706147165163166,71.11997300017309 36.49135122464957,168.1348938357524"></polygon>
<polygon fill="rgb(160, 160, 80)" opacity="0.06299212598425197" points="25.14397838639092,71.06766419992887 95.41690969174552,59.29043983401197 95.33193582631814,58.79371863444491 24.706147165163166,71.11997300017309"></polygon>
<polygon fill="rgb(160, 160, 80)" opacity="0.07086614173228346" points="95.41690969174552,59.29043983401197 85.14828913079674,100.04633842961793 85.69927759640004,100.17983132676757 95.33193582631814,58.79371863444491"></polygon>
<polygon fill="rgb(160, 160, 80)" opacity="0.07874015748031496" points="85.14828913079674,100.04633842961793 58.74386789541453,53.471834648783066 58.19892613540599,53.787808179004166 85.69927759640004,100.17983132676757"></polygon>
<polygon fill="rgb(160, 160, 80)" opacity="0.08661417322834646" points="58.74386789541453,53.471834648783066 137.04198855558565,19.98812653644953 136.76667199466743,19.3522572483548 58.19892613540599,53.787808179004166"></polygon>
<polygon fill="rgb(160, 160, 80)" opacity="0.09448818897637795" points="137.04198855558565,19.98812653644953 188.04500750126027,109.01504367970534 188.69966050922807,108.63712492925094 136.76667199466743,19.3522572483548"></polygon>
<polygon fill="rgb(160, 160, 80)" opacity="0.10236220472440945" points="188.04500750126027,109.01504367970534 111.77488857757733,168.72482405964712 112.2820478396285,169.36777259888055 188.69966050922807,108.63712492925094"></polygon>
<polygon fill="rgb(160, 160, 80)" opacity="0.11023622047244094" points="111.77488857757733,168.72482405964712 65.89372930847719,115.22075954583067 65.22772255730345,115.79882923267658 112.2820478396285,169.36777259888055"></polygon>
<polygon fill="rgb(160, 160, 80)" opacity="0.11811023622047244" points="65.89372930847719,115.22075954583067 105.88675294823345,103.81579121816297 105.6133970844234,102.9113143763786 65.22772255730345,115.79882923267658"></polygon>
<polygon fill="rgb(160, 160, 80)" opacity="0.12598425196850394" points="105.88675294823345,103.81579121816297 79.0172241587739,150.6147849502784 79.89900691538696,151.10291321391398 105.6133970844234,102.9113143763786"></polygon>
<polygon fill="rgb(160, 160, 80)" opacity="0.13385826771653545" points="79.0172241587739,150.6147849502784 9.534405869888047,100.87192261856048 8.917074715692692,101.74694064098539 79.89900691538696,151.10291321391398"></polygon>
<polygon fill="rgb(160, 160, 80)" opacity="0.14173228346456693" points="9.534405869888047,100.87192261856048 58.935862892909,11.035892695599525 57.93964186426609,10.49443334037625 8.917074715692692,101.74694064098539"></polygon>
<polygon fill="rgb(160, 160, 80)" opacity="0.14960629921259844" points="58.935862892909,11.035892695599525 149.1455014105856,44.92376545831258 149.5603701008087,43.80111910492507 57.93964186426609,10.49443334037625"></polygon>
<polygon fill="rgb(160, 160, 80)" opacity="0.15748031496062992" points="149.1455014105856,44.92376545831258 127.25960828209892,111.10932193372788 128.45913273370164,111.49447679143263 149.5603701008087,43.80111910492507"></polygon>
<polygon fill="rgb(160, 160, 80)" opacity="0.16535433070866143" points="127.25960828209892,111.10932193372788 97.67470869018403,82.48433464978562 96.7765208530093,83.45549380715089 128.45913273370164,111.49447679143263"></polygon>
<polygon fill="rgb(160, 160, 80)" opacity="0.1732283464566929" points="97.67470869018403,82.48433464978562 152.06348894500937,81.77330017947371 152.01575599078487,80.3882957007399 96.7765208530093,83.45549380715089"></polygon>
<polygon fill="rgb(160, 160, 80)" opacity="0.18110236220472442" points="152.06348894500937,81.77330017947371 145.56684933727485,167.27064869748722 147.01245847788613,167.367035474244 152.01575599078487,80.3882957007399"></polygon>
<polygon fill="rgb(160, 160, 80)" opacity="0.1889763779527559" points="145.56684933727485,167.27064869748722 43.233035599009206,171.88005685022245 43.31094731374123,173.38985893521658 147.01245847788613,167.367035474244"></polygon>
<polygon fill="rgb(160, 160, 80)" opacity="0.1968503937007874" points="43.233035599009206,171.88005685022245 25.331727909380394,77.70611879784649 23.786750810446836,78.01116096506401 43.31094731374123,173.38985893521658"></polygon>
<polygon fill="rgb(160, 160, 80)" opacity="0.2047244094488189" points="25.331727909380394,77.70611879784649 92.561181182675,62.458646005396496 92.18070395138949,60.86565810800993 23.786750810446836,78.01116096506401"></polygon>
<polygon fill="rgb(160, 160, 80)" opacity="0.2125984251968504" points="92.561181182675,62.458646005396496 82.65967759461752,102.00449922747734 84.32104086088633,102.36857323485526 92.18070395138949,60.86565810800993"></polygon>
<polygon fill="rgb(160, 160, 80)" opacity="0.2204724409448819" points="82.65967759461752,102.00449922747734 54.10825454145777,55.199357353656154 52.627859666988016,56.15818436489444 84.32104086088633,102.36857323485526"></polygon>
<polygon fill="rgb(160, 160, 80)" opacity="0.2283464566929134" points="54.10825454145777,55.199357353656154 130.8196294272667,16.25752948686275 129.9739338071114,14.638303254293774 52.627859666988016,56.15818436489444"></polygon>
<polygon fill="rgb(160, 160, 80)" opacity="0.23622047244094488" points="130.8196294272667,16.25752948686275 187.99854594451438,101.13974977740003 189.55719674142205,100.07119241548006 129.9739338071114,14.638303254293774"></polygon>
<polygon fill="rgb(160, 160, 80)" opacity="0.2440944881889764" points="187.99854594451438,101.13974977740003 117.26495413906733,165.07908504671698 118.58717314919832,166.5160932289343 189.55719674142205,100.07119241548006"></polygon>
<polygon fill="rgb(160, 160, 80)" opacity="0.25196850393700787" points="117.26495413906733,165.07908504671698 70.05095546131552,115.91679215348869 68.61717023210453,117.33365490018527 118.58717314919832,166.5160932289343"></polygon>
<polygon fill="rgb(160, 160, 80)" opacity="0.25984251968503935" points="70.05095546131552,115.91679215348869 108.8924014360141,104.8427625097705 108.2490313620967,102.86608965107362 68.61717023210453,117.33365490018527"></polygon>
<polygon fill="rgb(160, 160, 80)" opacity="0.2677165354330709" points="108.8924014360141,104.8427625097705 82.98350627319684,153.65436025744827 84.90687101096947,154.59653076193626 108.2490313620967,102.86608965107362"></polygon>
<polygon fill="rgb(160, 160, 80)" opacity="0.2755905511811024" points="82.98350627319684,153.65436025744827 9.645153019377881,108.14638886564698 8.508726917477423,110.03566000461534 84.90687101096947,154.59653076193626"></polygon>
<polygon fill="rgb(160, 160, 80)" opacity="0.28346456692913385" points="9.645153019377881,108.14638886564698 52.285501015865165,15.217872850070336 50.21524693241929,14.292353366184528 8.508726917477423,110.03566000461534"></polygon>
<polygon fill="rgb(160, 160, 80)" opacity="0.29133858267716534" points="52.285501015865165,15.217872850070336 143.19236099994603,42.218156585856335 143.83224980867007,39.977008403143856 50.21524693241929,14.292353366184528"></polygon>
<polygon fill="rgb(160, 160, 80)" opacity="0.2992125984251969" points="143.19236099994603,42.218156585856335 125.62914021893917,107.27590129229424 127.95050652123658,107.85990638659135 143.83224980867007,39.977008403143856"></polygon>
<polygon fill="rgb(160, 160, 80)" opacity="0.30708661417322836" points="125.62914021893917,107.27590129229424 96.90038042453732,79.39312476225196 95.2694825005491,81.2303814215707 127.95050652123658,107.85990638659135"></polygon>
<polygon fill="rgb(160, 160, 80)" opacity="0.31496062992125984" points="96.90038042453732,79.39312476225196 152.53681332424927,76.74882543221668 152.32213107242555,74.23830273198524 95.2694825005491,81.2303814215707"></polygon>
<polygon fill="rgb(160, 160, 80)" opacity="0.3228346456692913" points="152.53681332424927,76.74882543221668 151.70630598344923,163.33092334122912 154.28892911451027,163.31421695469353 152.32213107242555,74.23830273198524"></polygon>
<polygon fill="rgb(160, 160, 80)" opacity="0.33070866141732286" points="151.70630598344923,163.33092334122912 50.27517604781467,175.31629399237193 50.61558324635,177.93997250513172 154.28892911451027,163.31421695469353"></polygon>
<polygon fill="rgb(160, 160, 80)" opacity="0.33858267716535434" points="50.27517604781467,175.31629399237193 26.18270860108404,84.13763044186781 23.572693018959807,84.86196830140717 50.61558324635,177.93997250513172"></polygon>
<polygon fill="rgb(160, 160, 80)" opacity="0.3464566929133858" points="26.18270860108404,84.13763044186781 90.23550923158382,65.85625320858469 89.42102385817077,63.206974638742906 23.572693018959807,84.86196830140717"></polygon>
<polygon fill="rgb(160, 160, 80)" opacity="0.3543307086614173" points="90.23550923158382,65.85625320858469 80.47778895513781,104.34258496382948 83.25814680479166,104.89469573016201 89.42102385817077,63.206974638742906"></polygon>
<polygon fill="rgb(160, 160, 80)" opacity="0.36220472440944884" points="80.47778895513781,104.34258496382948 49.55515129544067,57.48824162167807 47.207574750237974,59.186826078519644 83.25814680479166,104.89469573016201"></polygon>
<polygon fill="rgb(160, 160, 80)" opacity="0.3700787401574803" points="49.55515129544067,57.48824162167807 124.21830501967246,13.109472993764903 122.65942111098313,10.592488589782924 47.207574750237974,59.186826078519644"></polygon>
<polygon fill="rgb(160, 160, 80)" opacity="0.3779527559055118" points="124.21830501967246,13.109472993764903 187.20635687956766,93.36513825104484 189.56037714166317,91.46754006116785 122.65942111098313,10.592488589782924"></polygon>
<polygon fill="rgb(160, 160, 80)" opacity="0.3858267716535433" points="187.20635687956766,93.36513825104484 122.22929832254705,160.98363279588753 124.48502638655644,163.09049728028478 189.56037714166317,91.46754006116785"></polygon>
<polygon fill="rgb(160, 160, 80)" opacity="0.3937007874015748" points="122.22929832254705,160.98363279588753 74.11881923225938,116.0449360024425 72.02326214575437,118.39624634717335 124.48502638655644,163.09049728028478"></polygon>
<polygon fill="rgb(160, 160, 80)" opacity="0.4015748031496063" points="74.11881923225938,116.0449360024425 112.05264777393427,105.40653980410843 111.0003470339249,102.3711729738632 72.02326214575437,118.39624634717335"></polygon>
<polygon fill="rgb(160, 160, 80)" opacity="0.4094488188976378" points="112.05264777393427,105.40653980410843 87.38192573371037,156.32362718851542 90.39491119764276,157.6086999697691 111.0003470339249,102.3711729738632"></polygon>
<polygon fill="rgb(160, 160, 80)" opacity="0.41732283464566927" points="87.38192573371037,156.32362718851542 10.452170033631594,115.4332886543316 8.945628269965974,118.41262854877128 90.39491119764276,157.6086999697691"></polygon>
<polygon fill="rgb(160, 160, 80)" opacity="0.4251968503937008" points="10.452170033631594,115.4332886543316 46.11498536692494,19.978040591833473 42.91144351803163,18.83434886596871 8.945628269965974,118.41262854877128"></polygon>
<polygon fill="rgb(160, 160, 80)" opacity="0.4330708661417323" points="46.11498536692494,19.978040591833473 137.13842796564876,40.1940095913887 137.83529256963755,36.80025006393901 42.91144351803163,18.83434886596871"></polygon>
<polygon fill="rgb(160, 160, 80)" opacity="0.4409448818897638" points="137.13842796564876,40.1940095913887 123.56873373931981,103.82007703164021 127.03705849092597,104.46381323905888 137.83529256963755,36.80025006393901"></polygon>
<polygon fill="rgb(160, 160, 80)" opacity="0.44881889763779526" points="123.56873373931981,103.82007703164021 95.65237601138448,76.42144013755741 93.31867612074147,79.15015826234209 127.03705849092597,104.46381323905888"></polygon>
<polygon fill="rgb(160, 160, 80)" opacity="0.4566929133858268" points="95.65237601138448,76.42144013755741 152.46476223015426,71.55577096115437 151.96081800571787,67.93714982660401 93.31867612074147,79.15015826234209"></polygon>
<polygon fill="rgb(160, 160, 80)" opacity="0.4645669291338583" points="152.46476223015426,71.55577096115437 157.4864168168832,158.79308989898908 161.19106936223682,158.49613006420253 151.96081800571787,67.93714982660401"></polygon>
<polygon fill="rgb(160, 160, 80)" opacity="0.47244094488188976" points="157.4864168168832,158.79308989898908 57.55296996495063,178.04031185966858 58.328039334929976,181.73951394138527 161.19106936223682,158.49613006420253"></polygon>
<polygon fill="rgb(160, 160, 80)" opacity="0.48031496062992124" points="57.55296996495063,178.04031185966858 27.661647817857943,90.29319951818653 24.04712504080889,91.59711003049503 58.328039334929976,181.73951394138527"></polygon>
<polygon fill="rgb(160, 160, 80)" opacity="0.4881889763779528" points="27.661647817857943,90.29319951818653 88.45635869611559,69.41425504985503 87.07776429322402,65.76014777469723 24.04712504080889,91.59711003049503"></polygon>
<polygon fill="rgb(160, 160, 80)" opacity="0.49606299212598426" points="88.45635869611559,69.41425504985503 78.65213165602775,107.0155398064151 82.55783814755928,107.7187327387284 87.07776429322402,65.76014777469723"></polygon>
<polygon fill="rgb(160, 160, 80)" opacity="0.5039370078740157" points="78.65213165602775,107.0155398064151 45.15072246613612,60.33009724834641 42.016262089475454,62.86547072242579 82.55783814755928,107.7187327387284"></polygon>
<polygon fill="rgb(160, 160, 80)" opacity="0.5118110236220472" points="45.15072246613612,60.33009724834641 117.29978347996683,10.584394959987065 114.89352530116358,7.271578166590615 42.016262089475454,62.86547072242579"></polygon>
<polygon fill="rgb(160, 160, 80)" opacity="0.5196850393700787" points="117.29978347996683,10.584394959987065 185.68649573148045,85.76786121566853 188.71147760370187,82.91582207813606 114.89352530116358,7.271578166590615"></polygon>
<polygon fill="rgb(160, 160, 80)" opacity="0.5275590551181102" points="185.68649573148045,85.76786121566853 126.62838090131795,156.5049229723751 129.92100379866562,159.14519229209176 188.71147760370187,82.91582207813606"></polygon>
<polygon fill="rgb(160, 160, 80)" opacity="0.5354330708661418" points="126.62838090131795,156.5049229723751 78.0304076243884,115.62808608506857 75.38416972460632,118.99639332668035 129.92100379866562,159.14519229209176"></polygon>
<polygon fill="rgb(160, 160, 80)" opacity="0.5433070866141733" points="78.0304076243884,115.62808608506857 115.30322299284954,105.48924183360708 113.80827850769067,101.40796424323608 75.38416972460632,118.99639332668035"></polygon>
<polygon fill="rgb(160, 160, 80)" opacity="0.5511811023622047" points="115.30322299284954,105.48924183360708 92.17010499185565,158.57094549089467 96.31419054138027,160.07752899163373 113.80827850769067,101.40796424323608"></polygon>
<polygon fill="rgb(160, 160, 80)" opacity="0.5590551181102362" points="92.17010499185565,158.57094549089467 11.956847003941148,122.6587369942563 10.238480811363234,126.7878949754507 96.31419054138027,160.07752899163373"></polygon>
<polygon fill="rgb(160, 160, 80)" opacity="0.5669291338582677" points="11.956847003941148,122.6587369942563 40.47960773975632,25.260393778335654 36.10293455476466,24.070904403821828 10.238480811363234,126.7878949754507"></polygon>
<polygon fill="rgb(160, 160, 80)" opacity="0.5748031496062992" points="40.47960773975632,25.260393778335654 131.06084294952996,38.84940974013224 131.6442577226016,34.288144401041514 36.10293455476466,24.070904403821828"></polygon>
<polygon fill="rgb(160, 160, 80)" opacity="0.5826771653543307" points="131.06084294952996,38.84940974013224 121.13333385281034,100.78602173151702 125.76012602117997,101.35312462194898 131.6442577226016,34.288144401041514"></polygon>
<polygon fill="rgb(160, 160, 80)" opacity="0.5905511811023622" points="121.13333385281034,100.78602173151702 93.94967667018435,73.63296322416359 90.94040337864303,77.2749844894647 125.76012602117997,101.35312462194898"></polygon>
<polygon fill="rgb(160, 160, 80)" opacity="0.5984251968503937" points="93.94967667018435,73.63296322416359 151.82612748571637,66.25759372387931 150.90555255139475,61.55953501535656 90.94040337864303,77.2749844894647"></polygon>
<polygon fill="rgb(160, 160, 80)" opacity="0.6062992125984252" points="151.82612748571637,66.25759372387931 162.84381663066884,153.69530502585508 167.6368509583667,152.95157053953085 150.90555255139475,61.55953501535656"></polygon>
<polygon fill="rgb(160, 160, 80)" opacity="0.6141732283464567" points="162.84381663066884,153.69530502585508 64.98964422266214,180.0350592290512 66.36674088174233,184.75151606382352 167.6368509583667,152.95157053953085"></polygon>
<polygon fill="rgb(160, 160, 80)" opacity="0.6220472440944882" points="64.98964422266214,180.0350592290512 29.7259374147673,96.10869071302166 25.184940318803754,98.14429453084223 66.36674088174233,184.75151606382352"></polygon>
<polygon fill="rgb(160, 160, 80)" opacity="0.6299212598425197" points="29.7259374147673,96.10869071302166 87.23165859981789,73.06282282562296 85.16840410233907,68.46518955739299 25.184940318803754,98.14429453084223"></polygon>
<polygon fill="rgb(160, 160, 80)" opacity="0.6377952755905512" points="87.23165859981789,73.06282282562296 77.22633709227644,109.97362359195202 82.2622853060151,110.79418782267533 85.16840410233907,68.46518955739299"></polygon>
<polygon fill="rgb(160, 160, 80)" opacity="0.6456692913385826" points="77.22633709227644,109.97362359195202 40.96007943559944,63.709092280308006 37.131374810933906,67.17635434984291 82.2622853060151,110.79418782267533"></polygon>
<polygon fill="rgb(160, 160, 80)" opacity="0.6535433070866141" points="40.96007943559944,63.709092280308006 110.13013877082331,8.715690229410392 106.75282409381937,4.724530968781089 37.131374810933906,67.17635434984291"></polygon>
<polygon fill="rgb(160, 160, 80)" opacity="0.6614173228346457" points="110.13013877082331,8.715690229410392 183.46531308924992,78.42195583358992 187.02249745991898,74.50472424104962 106.75282409381937,4.724530968781089"></polygon>
<polygon fill="rgb(160, 160, 80)" opacity="0.6692913385826772" points="183.46531308924992,78.42195583358992 130.43067771528843,151.71302241442706 134.8474252843946,154.73976955426375 187.02249745991898,74.50472424104962"></polygon>
<polygon fill="rgb(160, 160, 80)" opacity="0.6771653543307087" points="130.43067771528843,151.71302241442706 81.72267291842458,114.69678380279278 78.63991839995246,119.15144554905514 134.8474252843946,154.73976955426375"></polygon>
<polygon fill="rgb(160, 160, 80)" opacity="0.6850393700787402" points="81.72267291842458,114.69678380279278 118.57910397060398,105.0804461229327 116.61046077727688,99.96592795940342 78.63991839995246,119.15144554905514"></polygon>
<polygon fill="rgb(160, 160, 80)" opacity="0.6929133858267716" points="118.57910397060398,105.0804461229327 97.29992333443347,160.3495421571471 102.6081193970151,161.9468236031358 116.61046077727688,99.96592795940342"></polygon>
<polygon fill="rgb(160, 160, 80)" opacity="0.7007874015748031" points="97.29992333443347,160.3495421571471 14.152315509347938,129.74895413471128 12.388075801054645,135.07042471274352 102.6081193970151,161.9468236031358"></polygon>
<polygon fill="rgb(160, 160, 80)" opacity="0.7086614173228346" points="14.152315509347938,129.74895413471128 35.428031388697,31.003301993965316 29.858433711054083,29.944790779606613 12.388075801054645,135.07042471274352"></polygon>
<polygon fill="rgb(160, 160, 80)" opacity="0.7165354330708661" points="35.428031388697,31.003301993965316 125.03553194587397,38.17374475041217 125.33476833761603,32.44927697602435 29.858433711054083,29.944790779606613"></polygon>
<polygon fill="rgb(160, 160, 80)" opacity="0.7244094488188977" points="125.03553194587397,38.17374475041217 118.38227705543099,98.21055932396189 124.16644653048363,98.56917144632766 125.33476833761603,32.44927697602435"></polygon>
<polygon fill="rgb(160, 160, 80)" opacity="0.7322834645669292" points="118.38227705543099,98.21055932396189 91.81793726138972,71.08798079935411 88.15958863803635,75.6635448070596 124.16644653048363,98.56917144632766"></polygon>
<polygon fill="rgb(160, 160, 80)" opacity="0.7401574803149606" points="91.81793726138972,71.08798079935411 150.60689317837756,60.92001802076901 149.1389811298912,55.18359471521137 88.15958863803635,75.6635448070596"></polygon>
<polygon fill="rgb(160, 160, 80)" opacity="0.7480314960629921" points="150.60689317837756,60.92001802076901 167.71962866034042,148.08266333671392 173.5486077790903,146.72830959572846 149.1389811298912,55.18359471521137"></polygon>
<polygon fill="rgb(160, 160, 80)" opacity="0.7559055118110236" points="167.71962866034042,148.08266333671392 72.50719094088336,181.2920903921512 74.6467697195906,186.9481812496276 173.5486077790903,146.72830959572846"></polygon>
<polygon fill="rgb(160, 160, 80)" opacity="0.7637795275590551" points="72.50719094088336,181.2920903921512 32.32626471091673,101.52562509061899 26.953209937711804,104.43513863657698 74.6467697195906,186.9481812496276"></polygon>
<polygon fill="rgb(160, 160, 80)" opacity="0.7716535433070866" points="32.32626471091673,101.52562509061899 86.56078642878781,76.73234584479815 83.70281484676572,71.26053200898002 26.953209937711804,104.43513863657698"></polygon>
<polygon fill="rgb(160, 160, 80)" opacity="0.7795275590551181" points="86.56078642878781,76.73234584479815 76.23757465099531,113.16331265284903 82.40782259694079,114.06801485050697 83.70281484676572,71.26053200898002"></polygon>
<polygon fill="rgb(160, 160, 80)" opacity="0.7874015748031497" points="76.23757465099531,113.16331265284903 37.046414099073644,67.60208805567488 32.628520067242945,72.09233211181187 82.40782259694079,114.06801485050697"></polygon>
<polygon fill="rgb(160, 160, 80)" opacity="0.7952755905511811" points="37.046414099073644,67.60208805567488 102.77892940721719,7.5292566765296645 98.31917713639464,2.9918280392736474 32.628520067242945,72.09233211181187"></polygon>
<polygon fill="rgb(160, 160, 80)" opacity="0.8031496062992126" points="102.77892940721719,7.5292566765296645 180.57709929850705,71.39792351965946 184.51497315147606,66.32088658022201 98.31917713639464,2.9918280392736474"></polygon>
<polygon fill="rgb(160, 160, 80)" opacity="0.8110236220472441" points="180.57709929850705,71.39792351965946 133.61301414941602,146.6806533697867 139.224076156658,149.938348773608 184.51497315147606,66.32088658022201"></polygon>
<polygon fill="rgb(160, 160, 80)" opacity="0.8188976377952756" points="133.61301414941602,146.6806533697867 85.13732079452996,113.28867540441485 81.73325339716106,118.88602290033805 139.224076156658,149.938348773608"></polygon>
<polygon fill="rgb(160, 160, 80)" opacity="0.8267716535433071" points="85.13732079452996,113.28867540441485 121.81556338260764,104.1772212343284 119.34206817852761,98.04296423205274 81.73325339716106,118.88602290033805"></polygon>
<polygon fill="rgb(160, 160, 80)" opacity="0.8346456692913385" points="121.81556338260764,104.1772212343284 102.71809168807171,161.61817307616855 109.2131507970498,163.16696109909327 119.34206817852761,98.04296423205274"></polygon>
<polygon fill="rgb(160, 160, 80)" opacity="0.84251968503937" points="102.71809168807171,161.61817307616855 17.023502092806837,136.63120304327688 15.385206712429605,143.16922347044598 109.2131507970498,163.16696109909327"></polygon>
<polygon fill="rgb(160, 160, 80)" opacity="0.8503937007874016" points="17.023502092806837,136.63120304327688 31.001701200653134,37.14029794186394 24.23985311631424,36.39179607145105 15.385206712429605,143.16922347044598"></polygon>
<polygon fill="rgb(160, 160, 80)" opacity="0.8582677165354331" points="31.001701200653134,37.14029794186394 119.13622033331661,38.14793227094069 118.98229969474333,31.2835160011603 24.23985311631424,36.39179607145105"></polygon>
<polygon fill="rgb(160, 160, 80)" opacity="0.8661417322834646" points="119.13622033331661,38.14793227094069 115.37835978655802,96.12270294259723 122.30745065458403,96.14711131064472 118.98229969474333,31.2835160011603"></polygon>
<polygon fill="rgb(160, 160, 80)" opacity="0.8740157480314961" points="115.37835978655802,96.12270294259723 89.28898290425099,68.84249346949832 85.00961501211015,74.3721260272155 122.30745065458403,96.14711131064472"></polygon>
<polygon fill="rgb(160, 160, 80)" opacity="0.8818897637795275" points="89.28898290425099,68.84249346949832 148.80048988242814,55.61019718791913 146.65302871038344,48.889847341077555 85.00961501211015,74.3721260272155"></polygon>
<polygon fill="rgb(160, 160, 80)" opacity="0.889763779527559" points="148.80048988242814,55.61019718791913 172.0602299400829,142.00665230879184 178.85403325016765,139.8825689961912 146.65302871038344,48.889847341077555"></polygon>
<polygon fill="rgb(160, 160, 80)" opacity="0.8976377952755905" points="172.0602299400829,142.00665230879184 80.0273514597002,181.81164259084085 83.08091502861477,188.31117954873713 178.85403325016765,139.8825689961912"></polygon>
<polygon fill="rgb(160, 160, 80)" opacity="0.905511811023622" points="80.0273514597002,181.81164259084085 35.407330437128785,106.49189256721344 29.31171897919977,110.4060241321681 83.08091502861477,188.31117954873713"></polygon>
<polygon fill="rgb(160, 160, 80)" opacity="0.9133858267716536" points="35.407330437128785,106.49189256721344 86.43467413800445,80.35446543236877 82.6831504513764,74.08393237562645 29.31171897919977,110.4060241321681"></polygon>
<polygon fill="rgb(160, 160, 80)" opacity="0.9212598425196851" points="86.43467413800445,80.35446543236877 75.71606695583134,116.52816526302801 83.02425574287346,117.48128502941258 82.6831504513764,74.08393237562645"></polygon>
<polygon fill="rgb(160, 160, 80)" opacity="0.9291338582677166" points="75.71606695583134,116.52816526302801 33.47015422099232,71.97887022464705 28.58036774118315,77.57713162288137 83.02425574287346,117.48128502941258"></polygon>
<polygon fill="rgb(160, 160, 80)" opacity="0.937007874015748" points="33.47015422099232,71.97887022464705 95.31832883551105,7.043137722843578 89.67875030036079,2.1049078448616614 28.58036774118315,77.57713162288137"></polygon>
<polygon fill="rgb(160, 160, 80)" opacity="0.9448818897637795" points="95.31832883551105,7.043137722843578 177.06362568514882,64.7618560412411 181.21967115198888,58.447855696278594 89.67875030036079,2.1049078448616614"></polygon>
<polygon fill="rgb(160, 160, 80)" opacity="0.952755905511811" points="177.06362568514882,64.7618560412411 136.16078486001388,141.4822065911038 143.01864563403277,144.80866864490528 181.21967115198888,58.447855696278594"></polygon>
<polygon fill="rgb(160, 160, 80)" opacity="0.9606299212598425" points="136.16078486001388,141.4822065911038 88.22162786913708,111.44787106478054 84.61046378431107,118.23162548782113 143.01864563403277,144.80866864490528"></polygon>
<polygon fill="rgb(160, 160, 80)" opacity="0.968503937007874" points="88.22162786913708,111.44787106478054 124.94912717019493,102.78409205858115 121.93678183478953,95.6456210987575 84.61046378431107,118.23162548782113"></polygon>
<polygon fill="rgb(160, 160, 80)" opacity="0.9763779527559056" points="124.94912717019493,102.78409205858115 108.36679787562386,162.34171468775563 116.05957828833695,163.69567906910308 121.93678183478953,95.6456210987575"></polygon>
<polygon fill="rgb(160, 160, 80)" opacity="0.984251968503937" points="108.36679787562386,162.34171468775563 20.54728917381169,143.23471635524618 19.210711067514552,150.99446396493136 116.05957828833695,163.69567906910308"></polygon>
<polygon fill="rgb(160, 160, 80)" opacity="0.9921259842519685" points="20.54728917381169,143.23471635524618 27.23434866805744,43.60093130753264 19.30158044247604,43.34154304373842 19.210711067514552,150.99446396493136"></polygon>
<polygon fill="rgb(160, 160, 80)" opacity="1" points="27.23434866805744,43.60093130753264 113.4334812308247,38.744760220641886 112.66117702353645,30.78212584429351 19.30158044247604,43.34154304373842"></polygon>
</svg>
